<svg xmlns="http://www.w3.org/2000/svg" width="23.25" height="27.553" viewBox="0 0 23.25 27.553">
  <path id="Path_82148" data-name="Path 82148" d="M683.95,469.036v-7.508a8.118,8.118,0,0,1,2.866,1.825l4.05,4a7.981,7.981,0,0,1,1.85,2.829h-7.6a1.167,1.167,0,0,1-.822-.336A1.138,1.138,0,0,1,683.95,469.036Zm9.3,4v9.775a5.716,5.716,0,0,1-1.7,4.057,5.862,5.862,0,0,1-4.108,1.683H675.813a5.862,5.862,0,0,1-4.108-1.683,5.715,5.715,0,0,1-1.7-4.057V466.74a5.715,5.715,0,0,1,1.7-4.057A5.862,5.862,0,0,1,675.813,461h5.249c.189,0,.377.015.564.028v8.009a3.418,3.418,0,0,0,1.022,2.435,3.506,3.506,0,0,0,2.466,1.009h8.11C693.235,472.665,693.251,472.85,693.251,473.037Zm-9.3,9.775a1.138,1.138,0,0,0-.341-.812,1.167,1.167,0,0,0-.822-.336h-5.813a1.167,1.167,0,0,0-.822.336,1.137,1.137,0,0,0,0,1.623,1.167,1.167,0,0,0,.822.336h5.813a1.167,1.167,0,0,0,.822-.336A1.138,1.138,0,0,0,683.95,482.813Zm3.488-4.592a1.137,1.137,0,0,0-.341-.812,1.167,1.167,0,0,0-.822-.336h-9.3a1.167,1.167,0,0,0-.822.336,1.137,1.137,0,0,0,0,1.623,1.167,1.167,0,0,0,.822.336h9.3a1.167,1.167,0,0,0,.822-.336A1.137,1.137,0,0,0,687.438,478.22Z" transform="translate(-670 -461)" fill="#0e2d61"/>
</svg>
