<svg xmlns="http://www.w3.org/2000/svg" width="30" height="30" viewBox="0 0 30 30">
  <g id="Group_29338" data-name="Group 29338" transform="translate(-34 -160)">
    <path id="Path_79940" data-name="Path 79940" d="M8.909,0H5.091A5.091,5.091,0,0,0,0,5.091V8.909A5.091,5.091,0,0,0,5.091,14H8.909A5.091,5.091,0,0,0,14,8.909V5.091A5.091,5.091,0,0,0,8.909,0Z" transform="translate(34 160)" fill="#8796b0"/>
    <path id="Path_79941" data-name="Path 79941" d="M21.909,0H18.091A5.091,5.091,0,0,0,13,5.091V8.909A5.091,5.091,0,0,0,18.091,14h3.818A5.091,5.091,0,0,0,27,8.909V5.091A5.091,5.091,0,0,0,21.909,0Z" transform="translate(37 160)" fill="#8796b0"/>
    <path id="Path_79942" data-name="Path 79942" d="M8.909,13H5.091A5.091,5.091,0,0,0,0,18.091v3.818A5.091,5.091,0,0,0,5.091,27H8.909A5.091,5.091,0,0,0,14,21.909V18.091A5.091,5.091,0,0,0,8.909,13Z" transform="translate(34 163)" fill="#8796b0"/>
    <path id="Path_79943" data-name="Path 79943" d="M21.909,13H18.091A5.091,5.091,0,0,0,13,18.091v3.818A5.091,5.091,0,0,0,18.091,27h3.818A5.091,5.091,0,0,0,27,21.909V18.091A5.091,5.091,0,0,0,21.909,13Z" transform="translate(37 163)" fill="#8796b0"/>
  </g>
</svg>
