<svg xmlns="http://www.w3.org/2000/svg" width="24.155" height="29.154" viewBox="0 0 24.155 29.154">
  <g id="Group_29339" data-name="Group 29339" transform="translate(-36 -404)">
    <path id="Path_81995" data-name="Path 81995" d="M15,15.792a1.123,1.123,0,0,0-1,1.215v4.859a1.124,1.124,0,0,1-1,1.215H10V4.859A2.461,2.461,0,0,0,8.638,2.55l-.3-.12H13a1.124,1.124,0,0,1,1,1.215V7.289A1.123,1.123,0,0,0,15,8.5a1.123,1.123,0,0,0,1-1.215V3.644C16,1.635,14.654,0,13,0H2.25a.662.662,0,0,0-.107.027A1.423,1.423,0,0,0,2,0,2.249,2.249,0,0,0,0,2.43V24.3A2.461,2.461,0,0,0,1.362,26.6L7.38,29.041a1.736,1.736,0,0,0,.62.113,2.249,2.249,0,0,0,2-2.43V25.51h3c1.654,0,3-1.635,3-3.644V17.007a1.123,1.123,0,0,0-1-1.215Z" transform="translate(36 404)" fill="#8796b0"/>
    <path id="Path_81996" data-name="Path 81996" d="M23.707,9.293l-4-4A1,1,0,0,0,18,6V9H14a1,1,0,0,0,0,2h4v3a1,1,0,0,0,1.707.707l4-4a1,1,0,0,0,0-1.414Z" transform="translate(36.154 405.841)" fill="#8796b0"/>
  </g>
</svg>
